# xmcd
#
# Track frame offsets:
#	150
#	19073
#	33548
#	49034
#	65125
#	78521
#	94691
#	109002
#	126758
#	138775
#	155611
#	156576
#	157259
#	157953
#	158585
#	159386
#	160154
#	160979
#	161715
#	162609
#	163530
#	164228
#	164889
#	165588
#	166349
#	167074
#	167819
#	168576
#
# Disc length: 2256 seconds
#
# Revision: 1
# Processed by: cddbd v1.5.2PL0 Copyright (c) Steve Scherf et al.
# Submitted via: audiograbber 1.83.01
#
DISCID=7708ce1c
DTITLE=Various Artist - CDX Volume 662 (May 14, 2018)
DYEAR=2018
DGENRE=Country
TTITLE0=Carrie Underwood - Cry Pretty
TTITLE1=Maddie and Tae - Friends Don't
TTITLE2=Abby Anderson - Make Him Wait
TTITLE3=Chris Stapleton - Millionaire
TTITLE4=Jordan Davis - Take It From Me
TTITLE5=Ryan Sims - American Things
TTITLE6=Ben Cesare Band - Damn Yankee
TTITLE7=Jeb Barry And The Pawn Shop Saints - Galveston '92
TTITLE8=David Frizzell and Marty Haggard - Lefty, Merles and Me
TTITLE9=Eileen Carey - That Town
TTITLE10=Joe Denim - Radio Liner - Our New Single
TTITLE11=Joe Denim - Radio Liner - Today's Best Country
TTITLE12=Joe Denim - Radio Liner - Kickin' Country
TTITLE13=Joe Denim - Radio Liner - Hometown Country
TTITLE14=Joe Denim - Radio Liner - Super Country
TTITLE15=Joe Denim - Radio Liner - Today's Hot Country 
TTITLE16=Joe Denim - Radio Liner - Best In Today's Country
TTITLE17=Joe Denim - Radio Liner - More of the Country You Love
TTITLE18=Joe Denim - Radio Liner - Howlin' Country
TTITLE19=Robby Johnson - Radio Liner - My New Single
TTITLE20=Robby Johnson - Radio Liner - Today's Best Country
TTITLE21=Robby Johnson - Radio Liner - Kickin' Country
TTITLE22=Robby Johnson - Radio Liner - Hometown Country
TTITLE23=Robby Johnson - Radio Liner - Super Country
TTITLE24=Robby Johnson - Radio Liner - Today's Hot Country
TTITLE25=Robby Johnson - Radio Liner - Best In Today's Country
TTITLE26=Robby Johnson - Radio Liner - More of the Country You Love
TTITLE27=Robby Johnson - Radio Liner - Howlin' Country
EXTD=
EXTT0=
EXTT1=
EXTT2=
EXTT3=
EXTT4=
EXTT5=
EXTT6=
EXTT7=
EXTT8=
EXTT9=
EXTT10=
EXTT11=
EXTT12=
EXTT13=
EXTT14=
EXTT15=
EXTT16=
EXTT17=
EXTT18=
EXTT19=
EXTT20=
EXTT21=
EXTT22=
EXTT23=
EXTT24=
EXTT25=
EXTT26=
EXTT27=
PLAYORDER=
